<?xml version="1.0" encoding="UTF-8"?>
<svg id="gameOverSVG" data-name="Layer 1" xmlns="http://www.w3.org/2000/svg" width="1524.5" height="1068.5" xmlns:xlink="http://www.w3.org/1999/xlink" viewBox="0 0 1524.5 1068.5">
  <image id="woodBackground" width="3049" height="2137" transform="scale(.5)" xlink:href=""/>
  <image id="logoSVG" width="813" height="415" transform="translate(374.76 105.94) scale(.95 .92)" xlink:href=""/>
  <g id="tryAgainBtn">
    <rect id="tryAgainRect" x="197.75" y="765.61" width="564.5" height="139.35" style="fill: #ffc840;"/>
    <g>
      <path d="M300.28,818.32l-14.54-.18,1.93,40.75-18.03,.83,.18-41.21-13.25,.46-.18-16.1,43.15-.92,.74,16.38Z" style="fill: #231f20;"/>
      <path d="M326.13,841.5l-3.04,.64,.83,17.75-17.94,.28-.64-56.67,27.6-1.66,13.89,2.3,1.38,30.82-6.16,3.13,11.32,16.19-16.47,7.36-10.76-20.15Zm-4.51-12.51l9.38-.74,.09-12.05-9.66,.18,.18,12.6Z" style="fill: #231f20;"/>
      <path d="M369.92,839.02l-12.6-8.65-2.94-27.05,18.4-1.01,1.1,18.77,5.15,3.5,5.15-3.4,1.01-18.49,18.49,.64-3.04,27.14-14.17,9.48-.09,20.61-16.56,.18,.09-21.71Z" style="fill: #231f20;"/>
      <path d="M475.81,859.72l-16.56,.74-.92-11.41-13.16,1.1-.46,9.84-15.82-.28,2.39-32.93,11.5-23.83,16.19-.64,13.34,21.8,3.5,35.6Zm-18.77-24.01l-.64-7.45-4.97-10.58-4.78,10.4-.83,8.28,11.22-.64Z" style="fill: #231f20;"/>
      <path d="M489.34,802.5l31.83-.55v16.01l-21.9,.28v24.66l8.83-.46-.37-14.54,16.56-.46-1.75,31.74-40.11,1.01-1.93-47.1,8.83-10.58Z" style="fill: #231f20;"/>
      <path d="M576.09,859.72l-16.56,.74-.92-11.41-13.16,1.1-.46,9.84-15.82-.28,2.21-32.93,11.68-23.83,16.19-.64,13.52,21.8,3.31,35.6Zm-18.68-24.01l-.55-7.45-5.15-10.58-4.97,10.4-.64,8.28,11.31-.64Z" style="fill: #231f20;"/>
      <path d="M600.47,802.22l.37,56.67-18.31,1.2-.64-57.13,18.58-.74Z" style="fill: #231f20;"/>
      <path d="M656.22,858.71l-16.93,.37-.37-17.29-12.24-15.36-.37,32.29-16.28-.28-.37-54.55,16.01-1.56,13.52,18.49-.09-18.21,17.48-.18-.37,56.3Z" style="fill: #231f20;"/>
      <path d="M696.7,802.77l4.05,3.86,1.1,20.24-12.24,6.9,.37,6.35-17.2,1.2-.55-12.14,11.04-6.62v-3.68l-19.04,1.1,.28-17.29,32.2,.09Zm-23.73,43.61l17.75-1.1,.09,14.81-17.29-.37-.55-13.34Z" style="fill: #231f20;"/>
    </g>
  </g>
  <g id="mintBtn">
    <rect id="mintRect" x="796.75" y="765.61" width="564.5" height="139.35" style="fill: #ffc840;"/>
    <g>
      <path d="M836.9,811.34l8.31,15.95,8.17-15.95,10.92,.4,1.54,40.8-12.53,.87-.87-21.78-3.35,7.5-7.24,.54-3.75-7.84-.13,21.37-12.6-.07,.8-40.47,10.72-1.34Z" style="fill: #231f20;"/>
      <path d="M885.47,811.21l.27,41.27-13.33,.87-.47-41.61,13.53-.54Z" style="fill: #231f20;"/>
      <path d="M926.08,852.34l-12.33,.27-.27-12.6-8.91-11.19-.27,23.52-11.86-.2-.27-39.73,11.66-1.14,9.85,13.47-.07-13.27,12.73-.13-.27,41Z" style="fill: #231f20;"/>
      <path d="M962.25,822.93l-10.59-.13,1.41,29.68-13.13,.6,.13-30.02-9.65,.33-.13-11.72,31.42-.67,.54,11.93Z" style="fill: #231f20;"/>
      <path d="M991.06,838l-9.18-6.3-2.14-19.7,13.4-.74,.8,13.67,3.75,2.55,3.75-2.48,.74-13.47,13.47,.47-2.21,19.77-10.32,6.9-.07,15.01-12.06,.13,.07-15.81Z" style="fill: #231f20;"/>
      <path d="M1052.64,844.57l-1.41,7.57-19.76,.8-11.79-1.34,1.01-39.73,28.81-.47,3.15,33.17Zm-12.73-3.42l-.87-17.89-7.44-.4-.33,18.63,8.64-.33Z" style="fill: #231f20;"/>
      <path d="M1089.75,811.54l1.81,36.11-5.16,4.56-26,.87-2.48-2.28,.2-38.19,11.79-.2,.54,27.94,8.11-1.07-.47-27.6,11.66-.13Z" style="fill: #231f20;"/>
      <path d="M1112,839.81l-2.21,.47,.6,12.93-13.07,.2-.47-41.27,20.1-1.21,10.12,1.67,1,22.45-4.49,2.28,8.24,11.79-11.99,5.36-7.84-14.67Zm-3.28-9.11l6.83-.54,.07-8.78-7.04,.13,.13,9.18Z" style="fill: #231f20;"/>
      <path d="M1178.53,838.88l-14.88,.94,.54,13.67-13.33,.07-.13-41.67,25.19-.8,5.56,5.56,.67,16.15-3.62,6.1Zm-15.14-8.31l7.1-.47-.2-7.77-6.37-.13-.6,.74,.07,7.64Z" style="fill: #231f20;"/>
      <path d="M1200.3,811.21l.27,41.27-13.33,.87-.47-41.61,13.54-.54Z" style="fill: #231f20;"/>
      <path d="M1234.2,841.02v12.46l-26.33-1.34-.2-39.4,24.52-1.88,.47,11.46-12.13,.2-.6,19.3,14.27-.8Z" style="fill: #231f20;"/>
      <path d="M1251.09,811.67l.27,16.48,6.83-4.96,.33-11.66,13.6,.87-1.07,14.14-8.04,4.96,8.24,3.62,2.81,17.55-14.07,.8-.74-11.59-7.37-4.96,.47,15.81-13.33,.47-.54-41.34,12.6-.2Z" style="fill: #231f20;"/>
      <path d="M1291.69,841.02l12.33-.33-.33,12.6-25.33-.6,.27-5.23s.33-34.1,.33-35.71l13.67-.6-.94,29.88Z" style="fill: #231f20;"/>
      <path d="M1334.3,853.01l-26.4-.2,.27-39.4,2.55-1.74,22.78-.47-.27,10.65-12.73,.07-.13,5.36,9.58-.07-.13,9.85-10.05-.13,.07,5.63,14.88-.4-.4,10.85Z" style="fill: #231f20;"/>
    </g>
  </g>
  <g id="overrunMessage">
    <path d="M285.9,552.43l.64,27.68,5.68-20.96,10.24-.32,6.4,20.32,1.12-27.12,14.48,.4-3.04,48.8-14.8,1.44-9.04-23.12-7.28,22.8-16.4-.56-3.28-48.32,15.28-1.04Z" style="fill: #231f20;"/>
    <path d="M355.5,583.87l-9.68,.4,.08,16.96h-14.88l-.08-47.92h14.64l.4,18.32,9.44-.72-.08-18.64,15.84-.64v22.8l.4,28-16,.48-.08-19.04Z" style="fill: #231f20;"/>
    <path d="M418.7,592.11l-1.68,9.04-23.6,.96-14.08-1.6,1.2-47.44,34.4-.56,3.76,39.6Zm-15.2-4.08l-1.04-21.36-8.88-.48-.4,22.24,10.32-.4Z" style="fill: #231f20;"/>
    <path d="M463.82,602.27l-14.4,.64-.8-9.92-11.44,.96-.4,8.56-13.76-.24,1.92-28.64,10.16-20.72,14.08-.56,11.76,18.96,2.88,30.96Zm-16.24-20.88l-.48-6.48-4.48-9.2-4.32,9.04-.56,7.2,9.84-.56Z" style="fill: #231f20;"/>
    <path d="M483.98,552.27l.08,16.8-1.36,14.16-12.56,.64-1.04-13.92-.24-17.28,15.12-.4Zm.16,36.88l-.08,13.2-14.8,.4-.32-13.12,15.2-.48Z" style="fill: #231f20;"/>
    <path d="M521.82,584.27l-10.96-7.52-2.56-23.52,16-.88,.96,16.32,4.48,3.04,4.48-2.96,.88-16.08,16.08,.56-2.64,23.6-12.32,8.24-.08,17.92-14.4,.16,.08-18.88Z" style="fill: #231f20;"/>
    <path d="M595.34,592.11l-1.68,9.04-23.6,.96-14.08-1.6,1.2-47.44,34.4-.56,3.76,39.6Zm-15.2-4.08l-1.04-21.36-8.88-.48-.4,22.24,10.32-.4Z" style="fill: #231f20;"/>
    <path d="M639.65,552.67l2.16,43.12-6.16,5.44-31.04,1.04-2.96-2.72,.24-45.6,14.08-.24,.64,33.36,9.68-1.28-.56-32.96,13.92-.16Z" style="fill: #231f20;"/>
    <path d="M699.33,587.87v14.88l-31.44-1.6-.24-47.04,29.28-2.24,.56,13.68-14.48,.24-.72,23.04,17.04-.96Z" style="fill: #231f20;"/>
    <path d="M744.37,592.11l-1.68,9.04-23.6,.96-14.08-1.6,1.2-47.44,34.4-.56,3.76,39.6Zm-15.2-4.08l-1.04-21.36-8.88-.48-.4,22.24,10.32-.4Z" style="fill: #231f20;"/>
    <path d="M788.69,552.67l2.16,43.12-6.16,5.44-31.04,1.04-2.96-2.72,.24-45.6,14.08-.24,.64,33.36,9.68-1.28-.56-32.96,13.92-.16Z" style="fill: #231f20;"/>
    <path d="M812.45,587.87l14.72-.4-.4,15.04-30.24-.72,.32-6.24s.4-40.72,.4-42.64l16.32-.72-1.12,35.68Z" style="fill: #231f20;"/>
    <path d="M872.05,562.11l-.96,28.48-9.2,11.12-28.8-.4-1.04-48.24,28.88-.96,11.12,10Zm-15.12,25.28l-.08-20.72-9.36-.8-.08,22.64,9.52-1.12Z" style="fill: #231f20;"/>
    <path d="M918.85,601.39l-14.72,.32-.32-15.04-10.64-13.36-.32,28.08-14.16-.24-.32-47.44,13.92-1.36,11.76,16.08-.08-15.84,15.2-.16-.32,48.96Z" style="fill: #231f20;"/>
    <path d="M925.49,553.07l14.64-.32v12.32l-6.88,11.44-8.4-1.04,5.2-8.96h-4.32l-.24-13.44Z" style="fill: #231f20;"/>
    <path d="M981.41,566.27l-12.64-.16,1.68,35.44-15.68,.72,.16-35.84-11.52,.4-.16-14,37.52-.8,.64,14.24Z" style="fill: #231f20;"/>
    <path d="M1029.17,583.87l-9.68,.4,.08,16.96h-14.88l-.08-47.92h14.64l.4,18.32,9.44-.72-.08-18.64,15.84-.64v22.8l.4,28-16,.48-.08-19.04Z" style="fill: #231f20;"/>
    <path d="M1069.41,552.27l.32,49.28-15.92,1.04-.56-49.68,16.16-.64Z" style="fill: #231f20;"/>
    <path d="M1112.45,566.27l-12.64-.16,1.68,35.44-15.68,.72,.16-35.84-11.52,.4-.16-14,37.52-.8,.64,14.24Z" style="fill: #231f20;"/>
    <path d="M1170.6,566.27l-12.64-.16,1.68,35.44-15.68,.72,.16-35.84-11.52,.4-.16-14,37.52-.8,.64,14.24Z" style="fill: #231f20;"/>
    <path d="M1199.4,583.87l-9.68,.4,.08,16.96h-14.88l-.08-47.92h14.64l.4,18.32,9.44-.72-.08-18.64,15.84-.64v22.8l.4,28-16,.48-.08-19.04Z" style="fill: #231f20;"/>
    <path d="M1254.52,602.19l-31.52-.24,.32-47.04,3.04-2.08,27.2-.56-.32,12.72-15.2,.08-.16,6.4,11.44-.08-.16,11.76-12-.16,.08,6.72,17.76-.48-.48,12.96Z" style="fill: #231f20;"/>
    <path d="M416.66,682.67v.64l-9.28,15.2-30.96-.08-.88-48.48,.4-.48,19.36-1.2,11.36,.16,7.04,11.92v.48l-6,11.6,8.96,10.24Zm-19.6-22.64l-7.12-.08v8.56l7.28-.24-.16-8.24Zm1.68,18.4h-8.08v9.6l8.24-.48-.16-9.12Z" style="fill: #231f20;"/>
    <path d="M438.5,682.43l-2.64,.56,.72,15.44-15.6,.24-.56-49.28,24-1.44,12.08,2,1.2,26.8-5.36,2.72,9.84,14.08-14.32,6.4-9.36-17.52Zm-3.92-10.88l8.16-.64,.08-10.48-8.4,.16,.16,10.96Z" style="fill: #231f20;"/>
    <path d="M504.73,688.11l-1.68,9.04-23.6,.96-14.08-1.6,1.2-47.44,34.4-.56,3.76,39.6Zm-15.2-4.08l-1.04-21.36-8.88-.48-.4,22.24,10.32-.4Z" style="fill: #231f20;"/>
    <path d="M549.85,698.27l-14.4,.64-.8-9.92-11.44,.96-.4,8.56-13.76-.24,1.92-28.64,10.16-20.72,14.08-.56,11.76,18.96,2.88,30.96Zm-16.24-20.88l-.48-6.48-4.48-9.2-4.32,9.04-.56,7.2,9.84-.56Z" style="fill: #231f20;"/>
    <path d="M594.65,658.11l-.96,28.48-9.2,11.12-28.8-.4-1.04-48.24,28.88-.96,11.12,10Zm-15.12,25.28l-.08-20.72-9.36-.8-.08,22.64,9.52-1.12Z" style="fill: #231f20;"/>
    <path d="M650.49,648.11l-.08,13.36-14.4,.08-.56,3.44,16.32,7.44-1.28,24.08-30.32,2.88-1.44-16,17.44,.96,.24-4.56-16.96-9.84,1.44-19.92,12.88-1.36,16.72-.56Z" style="fill: #231f20;"/>
    <path d="M674.65,648.27l.32,49.28-15.92,1.04-.56-49.68,16.16-.64Z" style="fill: #231f20;"/>
    <path d="M722.73,658.11l-.96,28.48-9.2,11.12-28.8-.4-1.04-48.24,28.88-.96,11.12,10Zm-15.12,25.28l-.08-20.72-9.36-.8-.08,22.64,9.52-1.12Z" style="fill: #231f20;"/>
    <path d="M760.41,698.19l-31.52-.24,.32-47.04,3.04-2.08,27.2-.56-.32,12.72-15.2,.08-.16,6.4,11.44-.08-.16,11.76-12-.16,.08,6.72,17.76-.48-.48,12.96Z" style="fill: #231f20;"/>
    <path d="M824.41,688.11l-1.68,9.04-23.6,.96-14.08-1.6,1.2-47.44,34.4-.56,3.76,39.6Zm-15.2-4.08l-1.04-21.36-8.88-.48-.4,22.24,10.32-.4Z" style="fill: #231f20;"/>
    <path d="M863.61,647.31l.48,13.84-17.76-.16,.24,7.84,14.16-.72,.48,13.28-14.48,.4,.8,16.24-15.92,1.12-.32-50.56,32.32-1.28Z" style="fill: #231f20;"/>
    <path d="M927.45,698.27l-14.4,.64-.8-9.92-11.44,.96-.4,8.56-13.76-.24,1.92-28.64,10.16-20.72,14.08-.56,11.76,18.96,2.88,30.96Zm-16.24-20.88l-.48-6.48-4.48-9.2-4.32,9.04-.56,7.2,9.84-.56Z" style="fill: #231f20;"/>
    <path d="M992.57,682.67v.64l-9.28,15.2-30.96-.08-.88-48.48,.4-.48,19.36-1.2,11.36,.16,7.04,11.92v.48l-6,11.6,8.96,10.24Zm-19.6-22.64l-7.12-.08v8.56l7.28-.24-.16-8.24Zm1.68,18.4h-8.08v9.6l8.24-.48-.16-9.12Z" style="fill: #231f20;"/>
    <path d="M1035.13,698.27l-14.4,.64-.8-9.92-11.44,.96-.4,8.56-13.76-.24,1.92-28.64,10.16-20.72,14.08-.56,11.76,18.96,2.88,30.96Zm-16.24-20.88l-.48-6.48-4.48-9.2-4.32,9.04-.56,7.2,9.84-.56Z" style="fill: #231f20;"/>
    <path d="M1058.17,682.43l-2.64,.56,.72,15.44-15.6,.24-.56-49.28,24-1.44,12.08,2,1.2,26.8-5.36,2.72,9.84,14.08-14.32,6.4-9.36-17.52Zm-3.92-10.88l8.16-.64,.08-10.48-8.4,.16,.16,10.96Z" style="fill: #231f20;"/>
    <path d="M1125.45,697.39l-14.72,.32-.32-15.04-10.64-13.36-.32,28.08-14.16-.24-.32-47.44,13.92-1.36,11.76,16.08-.08-15.84,15.2-.16-.32,48.96Z" style="fill: #231f20;"/>
    <path d="M1149.05,648.27l.08,16.8-1.36,14.16-12.56,.64-1.04-13.92-.24-17.28,15.12-.4Zm.16,36.88l-.08,13.2-14.8,.4-.32-13.12,15.2-.48Z" style="fill: #231f20;"/>
  </g>
  <g id="missMessage">
    <path d="M300.9,583.97l-10.96-7.52-2.56-23.52,16-.88,.96,16.32,4.48,3.04,4.48-2.96,.88-16.08,16.08,.56-2.64,23.6-12.32,8.24-.08,17.92-14.4,.16,.08-18.88Z" style="fill: #231f20;"/>
    <path d="M374.42,591.81l-1.68,9.04-23.6,.96-14.08-1.6,1.2-47.44,34.4-.56,3.76,39.6Zm-15.2-4.08l-1.04-21.36-8.88-.48-.4,22.24,10.32-.4Z" style="fill: #231f20;"/>
    <path d="M418.73,552.37l2.16,43.12-6.16,5.44-31.04,1.04-2.96-2.72,.24-45.6,14.08-.24,.64,33.36,9.68-1.28-.56-32.96,13.92-.16Z" style="fill: #231f20;"/>
    <path d="M452.97,552.21l27.68-.48v13.92l-19.04,.24v21.44l7.68-.4-.32-12.64,14.4-.4-1.52,27.6-34.88,.88-1.68-40.96,7.68-9.2Z" style="fill: #231f20;"/>
    <path d="M528.81,591.81l-1.68,9.04-23.6,.96-14.08-1.6,1.2-47.44,34.4-.56,3.76,39.6Zm-15.2-4.08l-1.04-21.36-8.88-.48-.4,22.24,10.32-.4Z" style="fill: #231f20;"/>
    <path d="M569.93,565.97l-12.64-.16,1.68,35.44-15.68,.72,.16-35.84-11.52,.4-.16-14,37.52-.8,.64,14.24Z" style="fill: #231f20;"/>
    <path d="M632.49,591.81l-1.68,9.04-23.6,.96-14.08-1.6,1.2-47.44,34.4-.56,3.76,39.6Zm-15.2-4.08l-1.04-21.36-8.88-.48-.4,22.24,10.32-.4Z" style="fill: #231f20;"/>
    <path d="M634.57,553.33l16.08-1.36,7.44,32.48,6.48-31.92,15.52,.72-13.84,48-16.48,.8-15.2-48.72Z" style="fill: #231f20;"/>
    <path d="M715.53,601.89l-31.52-.24,.32-47.04,3.04-2.08,27.2-.56-.32,12.72-15.2,.08-.16,6.4,11.44-.08-.16,11.76-12-.16,.08,6.72,17.76-.48-.48,12.96Z" style="fill: #231f20;"/>
    <path d="M739.45,586.13l-2.64,.56,.72,15.44-15.6,.24-.56-49.28,24-1.44,12.08,2,1.2,26.8-5.36,2.72,9.84,14.08-14.32,6.4-9.36-17.52Zm-3.92-10.88l8.16-.64,.08-10.48-8.4,.16,.16,10.96Z" style="fill: #231f20;"/>
    <path d="M784.57,586.13l-2.64,.56,.72,15.44-15.6,.24-.56-49.28,24-1.44,12.08,2,1.2,26.8-5.36,2.72,9.84,14.08-14.32,6.4-9.36-17.52Zm-3.92-10.88l8.16-.64,.08-10.48-8.4,.16,.16,10.96Z" style="fill: #231f20;"/>
    <path d="M849.61,552.37l2.16,43.12-6.16,5.44-31.04,1.04-2.96-2.72,.24-45.6,14.08-.24,.64,33.36,9.68-1.28-.56-32.96,13.92-.16Z" style="fill: #231f20;"/>
    <path d="M898.33,601.09l-14.72,.32-.32-15.04-10.64-13.36-.32,28.08-14.16-.24-.32-47.44,13.92-1.36,11.76,16.08-.08-15.84,15.2-.16-.32,48.96Z" style="fill: #231f20;"/>
    <path d="M966.89,586.37v.64l-9.28,15.2-30.96-.08-.88-48.48,.4-.48,19.36-1.2,11.36,.16,7.04,11.92v.48l-6,11.6,8.96,10.24Zm-19.6-22.64l-7.12-.08v8.56l7.28-.24-.16-8.24Zm1.68,18.4h-8.08v9.6l8.24-.48-.16-9.12Z" style="fill: #231f20;"/>
    <path d="M980.89,583.97l-10.96-7.52-2.56-23.52,16-.88,.96,16.32,4.48,3.04,4.48-2.96,.88-16.08,16.08,.56-2.64,23.6-12.32,8.24-.08,17.92-14.4,.16,.08-18.88Z" style="fill: #231f20;"/>
    <path d="M1068.97,565.97l-12.64-.16,1.68,35.44-15.68,.72,.16-35.84-11.52,.4-.16-14,37.52-.8,.64,14.24Z" style="fill: #231f20;"/>
    <path d="M1097.77,583.57l-9.68,.4,.08,16.96h-14.88l-.08-47.92h14.64l.4,18.32,9.44-.72-.08-18.64,15.84-.64v22.8l.4,28-16,.48-.08-19.04Z" style="fill: #231f20;"/>
    <path d="M1160.97,591.81l-1.68,9.04-23.6,.96-14.08-1.6,1.2-47.44,34.4-.56,3.76,39.6Zm-15.2-4.08l-1.04-21.36-8.88-.48-.4,22.24,10.32-.4Z" style="fill: #231f20;"/>
    <path d="M1197.6,551.81l-.08,13.36-14.4,.08-.56,3.44,16.32,7.44-1.28,24.08-30.32,2.88-1.44-16,17.44,.96,.24-4.56-16.96-9.84,1.44-19.92,12.88-1.36,16.72-.56Z" style="fill: #231f20;"/>
    <path d="M1236.64,601.89l-31.52-.24,.32-47.04,3.04-2.08,27.2-.56-.32,12.72-15.2,.08-.16,6.4,11.44-.08-.16,11.76-12-.16,.08,6.72,17.76-.48-.48,12.96Z" style="fill: #231f20;"/>
    <path d="M431.06,657.81l-.96,28.48-9.2,11.12-28.8-.4-1.04-48.24,28.88-.96,11.12,10Zm-15.12,25.28l-.08-20.72-9.36-.8-.08,22.64,9.52-1.12Z" style="fill: #231f20;"/>
    <path d="M476.41,697.97l-14.4,.64-.8-9.92-11.44,.96-.4,8.56-13.76-.24,1.92-28.64,10.16-20.72,14.08-.56,11.76,18.96,2.88,30.96Zm-16.24-20.88l-.48-6.48-4.48-9.2-4.32,9.04-.56,7.2,9.84-.56Z" style="fill: #231f20;"/>
    <path d="M499.45,682.13l-2.64,.56,.72,15.44-15.6,.24-.56-49.28,24-1.44,12.08,2,1.2,26.8-5.36,2.72,9.84,14.08-14.32,6.4-9.36-17.52Zm-3.92-10.88l8.16-.64,.08-10.48-8.4,.16,.16,10.96Z" style="fill: #231f20;"/>
    <path d="M566.73,697.09l-14.72,.32-.32-15.04-10.64-13.36-.32,28.08-14.16-.24-.32-47.44,13.92-1.36,11.76,16.08-.08-15.84,15.2-.16-.32,48.96Z" style="fill: #231f20;"/>
    <path d="M612.17,682.13l-2.64,.56,.72,15.44-15.6,.24-.56-49.28,24-1.44,12.08,2,1.2,26.8-5.36,2.72,9.84,14.08-14.32,6.4-9.36-17.52Zm-3.92-10.88l8.16-.64,.08-10.48-8.4,.16,.16,10.96Z" style="fill: #231f20;"/>
    <path d="M678.41,687.81l-1.68,9.04-23.6,.96-14.08-1.6,1.2-47.44,34.4-.56,3.76,39.6Zm-15.2-4.08l-1.04-21.36-8.88-.48-.4,22.24,10.32-.4Z" style="fill: #231f20;"/>
    <path d="M698.65,648.13l.64,27.68,5.68-20.96,10.24-.32,6.4,20.32,1.12-27.12,14.48,.4-3.04,48.8-14.8,1.44-9.04-23.12-7.28,22.8-16.4-.56-3.28-48.32,15.28-1.04Z" style="fill: #231f20;"/>
    <path d="M783.69,657.81l-.96,28.48-9.2,11.12-28.8-.4-1.04-48.24,28.88-.96,11.12,10Zm-15.12,25.28l-.08-20.72-9.36-.8-.08,22.64,9.52-1.12Z" style="fill: #231f20;"/>
    <path d="M801.29,679.97l-10.96-7.52-2.56-23.52,16-.88,.96,16.32,4.48,3.04,4.48-2.96,.88-16.08,16.08,.56-2.64,23.6-12.32,8.24-.08,17.92-14.4,.16,.08-18.88Z" style="fill: #231f20;"/>
    <path d="M888.01,681.01l-17.76,1.12,.64,16.32-15.92,.08-.16-49.76,30.08-.96,6.64,6.64,.8,19.28-4.32,7.28Zm-18.08-9.92l8.48-.56-.24-9.28-7.6-.16-.72,.88,.08,9.12Z" style="fill: #231f20;"/>
    <path d="M914.01,647.97l.32,49.28-15.92,1.04-.56-49.68,16.16-.64Z" style="fill: #231f20;"/>
    <path d="M954.49,683.57v14.88l-31.44-1.6-.24-47.04,29.28-2.24,.56,13.68-14.48,.24-.72,23.04,17.04-.96Z" style="fill: #231f20;"/>
    <path d="M974.65,648.53l.32,19.68,8.16-5.92,.4-13.92,16.24,1.04-1.28,16.88-9.6,5.92,9.84,4.32,3.36,20.96-16.8,.96-.88-13.84-8.8-5.92,.56,18.88-15.92,.56-.64-49.36,15.04-.24Z" style="fill: #231f20;"/>
    <path d="M1023.13,683.57l14.72-.4-.4,15.04-30.24-.72,.32-6.24s.4-40.72,.4-42.64l16.32-.72-1.12,35.68Z" style="fill: #231f20;"/>
    <path d="M1074.01,697.89l-31.52-.24,.32-47.04,3.04-2.08,27.2-.56-.32,12.72-15.2,.08-.16,6.4,11.44-.08-.16,11.76-12-.16,.08,6.72,17.76-.48-.48,12.96Z" style="fill: #231f20;"/>
    <path d="M1110.17,647.81l-.08,13.36-14.4,.08-.56,3.44,16.32,7.44-1.28,24.08-30.32,2.88-1.44-16,17.44,.96,.24-4.56-16.96-9.84,1.44-19.92,12.88-1.36,16.72-.56Z" style="fill: #231f20;"/>
    <path d="M1133.29,647.97l.08,16.8-1.36,14.16-12.56,.64-1.04-13.92-.24-17.28,15.12-.4Zm.16,36.88l-.08,13.2-14.8,.4-.32-13.12,15.2-.48Z" style="fill: #231f20;"/>
  </g>
</svg>